<svg width="123" height="123" viewBox="0 0 123 123" fill="none" xmlns="http://www.w3.org/2000/svg">
<path d="M61.5 113.98C88.6725 113.98 110.7 91.9525 110.7 64.7801C110.7 37.6077 88.6725 15.5801 61.5 15.5801C34.3276 15.5801 12.3 37.6077 12.3 64.7801C12.3 91.9525 34.3276 113.98 61.5 113.98Z" fill="#FFDD95" stroke="#ABB6B4" stroke-width="6" stroke-miterlimit="10" stroke-linecap="round" stroke-linejoin="round"/>
<path fill-rule="evenodd" clip-rule="evenodd" d="M66.8826 49.1025C65.1966 48.6343 63.3844 48.3797 61.5001 48.3797C59.4058 48.3797 57.4034 48.6938 55.5617 49.2661C54.6072 47.2653 51.9996 42.1989 49.1525 40.1797C49.1525 40.1797 46.1677 48.0123 46.8385 55.6154C45.7266 57.3849 45.1001 59.3841 45.1001 61.4997C45.1001 67.5382 50.1989 72.6238 57.141 74.1511C50.1989 77.9694 45.1001 90.6835 45.1001 105.78C45.1001 107.647 45.1788 109.478 45.3281 111.26C50.3924 113.022 55.8355 113.98 61.5001 113.98C67.1646 113.98 72.6078 113.022 77.6721 111.26C77.8214 109.478 77.9001 107.647 77.9001 105.78C77.9001 90.6835 72.8013 77.9694 65.8592 74.1511C72.8013 72.6238 77.9001 67.5382 77.9001 61.4997C77.9001 59.0422 77.0555 56.7425 75.586 54.7765C75.9813 47.4469 73.213 40.1797 73.213 40.1797C70.4397 42.146 67.8944 47.0013 66.8826 49.1025Z" fill="#997843" stroke="#ABB6B4" stroke-width="4" stroke-miterlimit="10" stroke-linecap="round" stroke-linejoin="round"/>
<path d="M97.5801 45.0998C106.638 45.0998 113.98 37.7573 113.98 28.6998C113.98 19.6423 106.638 12.2998 97.5801 12.2998C88.5226 12.2998 81.1801 19.6423 81.1801 28.6998C81.1801 37.7573 88.5226 45.0998 97.5801 45.0998Z" fill="#CDFF9F" stroke="#85D839" stroke-width="4" stroke-miterlimit="10" stroke-linecap="round" stroke-linejoin="round"/>
<path d="M104.14 20.499L96.5945 36.899L89.3801 31.0463" stroke="#85D839" stroke-width="4" stroke-miterlimit="10" stroke-linecap="round" stroke-linejoin="round"/>
</svg>
