<svg width="100" height="100" viewBox="0 0 100 100" fill="none" xmlns="http://www.w3.org/2000/svg">
<path d="M80 16.666H20C16.3181 16.666 13.3334 19.6508 13.3334 23.3327C13.3334 27.0146 16.3181 29.9993 20 29.9993H80C83.6819 29.9993 86.6667 27.0146 86.6667 23.3327C86.6667 19.6508 83.6819 16.666 80 16.666Z" fill="#C1F7FD"/>
<path d="M80 32.4993H20C17.5689 32.4993 15.2373 31.5336 13.5182 29.8145C11.7991 28.0954 10.8334 25.7638 10.8334 23.3327C10.8334 20.9015 11.7991 18.57 13.5182 16.8509C15.2373 15.1318 17.5689 14.166 20 14.166H80C82.4312 14.166 84.7628 15.1318 86.4818 16.8509C88.2009 18.57 89.1667 20.9015 89.1667 23.3327C89.1667 25.7638 88.2009 28.0954 86.4818 29.8145C84.7628 31.5336 82.4312 32.4993 80 32.4993ZM20 19.166C18.895 19.166 17.8352 19.605 17.0538 20.3864C16.2724 21.1678 15.8334 22.2276 15.8334 23.3327C15.8334 24.4377 16.2724 25.4976 17.0538 26.279C17.8352 27.0604 18.895 27.4993 20 27.4993H80C81.1051 27.4993 82.1649 27.0604 82.9463 26.279C83.7277 25.4976 84.1667 24.4377 84.1667 23.3327C84.1667 22.2276 83.7277 21.1678 82.9463 20.3864C82.1649 19.605 81.1051 19.166 80 19.166H20Z" fill="#7BCDD1"/>
<path d="M80 43.334H20C16.3181 43.334 13.3334 46.3188 13.3334 50.0007C13.3334 53.6826 16.3181 56.6673 20 56.6673H80C83.6819 56.6673 86.6667 53.6826 86.6667 50.0007C86.6667 46.3188 83.6819 43.334 80 43.334Z" fill="#C1F7FD"/>
<path d="M80 59.1673H20C17.5689 59.1673 15.2373 58.2015 13.5182 56.4825C11.7991 54.7634 10.8334 52.4318 10.8334 50.0007C10.8334 47.5695 11.7991 45.2379 13.5182 43.5188C15.2373 41.7998 17.5689 40.834 20 40.834H80C82.4312 40.834 84.7628 41.7998 86.4818 43.5188C88.2009 45.2379 89.1667 47.5695 89.1667 50.0007C89.1667 52.4318 88.2009 54.7634 86.4818 56.4825C84.7628 58.2015 82.4312 59.1673 80 59.1673ZM20 45.834C18.895 45.834 17.8352 46.273 17.0538 47.0544C16.2724 47.8358 15.8334 48.8956 15.8334 50.0007C15.8334 51.1057 16.2724 52.1655 17.0538 52.9469C17.8352 53.7283 18.895 54.1673 20 54.1673H80C81.1051 54.1673 82.1649 53.7283 82.9463 52.9469C83.7277 52.1655 84.1667 51.1057 84.1667 50.0007C84.1667 48.8956 83.7277 47.8358 82.9463 47.0544C82.1649 46.273 81.1051 45.834 80 45.834H20Z" fill="#7BCDD1"/>
<path d="M80 70H20C16.3181 70 13.3334 72.9848 13.3334 76.6667C13.3334 80.3486 16.3181 83.3333 20 83.3333H80C83.6819 83.3333 86.6667 80.3486 86.6667 76.6667C86.6667 72.9848 83.6819 70 80 70Z" fill="#C1F7FD"/>
<path d="M80 85.8333H20C17.5689 85.8333 15.2373 84.8676 13.5182 83.1485C11.7991 81.4294 10.8334 79.0978 10.8334 76.6667C10.8334 74.2355 11.7991 71.9039 13.5182 70.1849C15.2373 68.4658 17.5689 67.5 20 67.5H80C82.4312 67.5 84.7628 68.4658 86.4818 70.1849C88.2009 71.9039 89.1667 74.2355 89.1667 76.6667C89.1667 79.0978 88.2009 81.4294 86.4818 83.1485C84.7628 84.8676 82.4312 85.8333 80 85.8333ZM20 72.5C18.895 72.5 17.8352 72.939 17.0538 73.7204C16.2724 74.5018 15.8334 75.5616 15.8334 76.6667C15.8334 77.7717 16.2724 78.8315 17.0538 79.6129C17.8352 80.3944 18.895 80.8333 20 80.8333H80C81.1051 80.8333 82.1649 80.3944 82.9463 79.6129C83.7277 78.8315 84.1667 77.7717 84.1667 76.6667C84.1667 75.5616 83.7277 74.5018 82.9463 73.7204C82.1649 72.939 81.1051 72.5 80 72.5H20Z" fill="#7BCDD1"/>
<path d="M66.6666 33.334C72.1895 33.334 76.6666 28.8568 76.6666 23.334C76.6666 17.8111 72.1895 13.334 66.6666 13.334C61.1438 13.334 56.6666 17.8111 56.6666 23.334C56.6666 28.8568 61.1438 33.334 66.6666 33.334Z" fill="#FFE1A0"/>
<path d="M66.6666 35.834C64.1944 35.834 61.7776 35.1009 59.722 33.7274C57.6664 32.3538 56.0642 30.4016 55.1181 28.1175C54.172 25.8335 53.9245 23.3201 54.4068 20.8954C54.8891 18.4706 56.0796 16.2433 57.8278 14.4952C59.5759 12.747 61.8032 11.5565 64.228 11.0742C66.6528 10.5919 69.1661 10.8394 71.4502 11.7855C73.7342 12.7316 75.6865 14.3337 77.06 16.3894C78.4335 18.445 79.1666 20.8617 79.1666 23.334C79.1631 26.6481 77.845 29.8255 75.5016 32.1689C73.1581 34.5124 69.9808 35.8305 66.6666 35.834ZM66.6666 15.834C65.1833 15.834 63.7332 16.2739 62.4999 17.098C61.2665 17.9221 60.3052 19.0934 59.7375 20.4639C59.1699 21.8343 59.0214 23.3423 59.3107 24.7972C59.6001 26.252 60.3144 27.5884 61.3633 28.6373C62.4122 29.6862 63.7486 30.4005 65.2035 30.6899C66.6583 30.9793 68.1663 30.8307 69.5368 30.2631C70.9072 29.6954 72.0785 28.7341 72.9026 27.5008C73.7268 26.2674 74.1666 24.8174 74.1666 23.334C74.1644 21.3455 73.3735 19.4392 71.9675 18.0331C70.5614 16.6271 68.6551 15.8362 66.6666 15.834Z" fill="#F29580"/>
<path d="M33.3334 60C38.8562 60 43.3334 55.5229 43.3334 50C43.3334 44.4772 38.8562 40 33.3334 40C27.8105 40 23.3334 44.4772 23.3334 50C23.3334 55.5229 27.8105 60 33.3334 60Z" fill="#FFE1A0"/>
<path d="M33.3334 62.5C30.8611 62.5 28.4444 61.7669 26.3888 60.3934C24.3331 59.0199 22.731 57.0676 21.7849 54.7835C20.8388 52.4995 20.5912 49.9861 21.0736 47.5614C21.5559 45.1366 22.7464 42.9093 24.4945 41.1612C26.2427 39.413 28.47 38.2225 30.8948 37.7402C33.3195 37.2579 35.8328 37.5054 38.1169 38.4515C40.401 39.3976 42.3532 40.9998 43.7268 43.0554C45.1003 45.111 45.8334 47.5277 45.8334 50C45.8299 53.3141 44.5118 56.4915 42.1683 58.8349C39.8249 61.1784 36.6475 62.4965 33.3334 62.5ZM33.3334 42.5C31.85 42.5 30.4 42.9399 29.1666 43.764C27.9332 44.5881 26.9719 45.7594 26.4043 47.1299C25.8366 48.5003 25.6881 50.0083 25.9775 51.4632C26.2669 52.918 26.9812 54.2544 28.0301 55.3033C29.079 56.3522 30.4153 57.0665 31.8702 57.3559C33.3251 57.6453 34.8331 57.4968 36.2035 56.9291C37.5739 56.3614 38.7453 55.4002 39.5694 54.1668C40.3935 52.9334 40.8334 51.4834 40.8334 50C40.8312 48.0116 40.0403 46.1052 38.6342 44.6991C37.2282 43.2931 35.3218 42.5022 33.3334 42.5Z" fill="#F29580"/>
<path d="M66.6666 86.666C72.1895 86.666 76.6666 82.1889 76.6666 76.666C76.6666 71.1432 72.1895 66.666 66.6666 66.666C61.1438 66.666 56.6666 71.1432 56.6666 76.666C56.6666 82.1889 61.1438 86.666 66.6666 86.666Z" fill="#FFE1A0"/>
<path d="M66.6666 89.166C64.1944 89.166 61.7776 88.4329 59.722 87.0594C57.6664 85.6859 56.0642 83.7336 55.1181 81.4496C54.172 79.1655 53.9245 76.6522 54.4068 74.2274C54.8891 71.8026 56.0796 69.5753 57.8278 67.8272C59.5759 66.079 61.8032 64.8885 64.228 64.4062C66.6528 63.9239 69.1661 64.1714 71.4502 65.1175C73.7342 66.0636 75.6865 67.6658 77.06 69.7214C78.4335 71.777 79.1666 74.1938 79.1666 76.666C79.1631 79.9801 77.845 83.1575 75.5016 85.501C73.1581 87.8444 69.9808 89.1625 66.6666 89.166ZM66.6666 69.166C65.1833 69.166 63.7332 69.6059 62.4999 70.43C61.2665 71.2541 60.3052 72.4254 59.7375 73.7959C59.1699 75.1663 59.0214 76.6743 59.3107 78.1292C59.6001 79.5841 60.3144 80.9204 61.3633 81.9693C62.4122 83.0182 63.7486 83.7325 65.2035 84.0219C66.6583 84.3113 68.1663 84.1628 69.5368 83.5951C70.9072 83.0275 72.0785 82.0662 72.9026 80.8328C73.7268 79.5994 74.1666 78.1494 74.1666 76.666C74.1644 74.6776 73.3735 72.7712 71.9675 71.3652C70.5614 69.9591 68.6551 69.1682 66.6666 69.166Z" fill="#F29580"/>
<path d="M56.6666 25.834C56.0036 25.834 55.3677 25.5706 54.8989 25.1018C54.43 24.6329 54.1666 23.997 54.1666 23.334C54.1702 20.0199 55.4883 16.8425 57.8317 14.499C60.1751 12.1556 63.3525 10.8375 66.6666 10.834C67.3297 10.834 67.9656 11.0974 68.4344 11.5662C68.9032 12.0351 69.1666 12.6709 69.1666 13.334C69.1666 13.997 68.9032 14.6329 68.4344 15.1018C67.9656 15.5706 67.3297 15.834 66.6666 15.834C64.6782 15.8362 62.7718 16.6271 61.3658 18.0331C59.9597 19.4392 59.1688 21.3455 59.1666 23.334C59.1666 23.997 58.9032 24.6329 58.4344 25.1018C57.9656 25.5706 57.3297 25.834 56.6666 25.834Z" fill="#F2BF80"/>
<path d="M56.6666 79.166C56.0036 79.166 55.3677 78.9026 54.8989 78.4338C54.43 77.965 54.1666 77.3291 54.1666 76.666C54.1702 73.3519 55.4883 70.1745 57.8317 67.8311C60.1751 65.4876 63.3525 64.1695 66.6666 64.166C67.3297 64.166 67.9656 64.4294 68.4344 64.8982C68.9032 65.3671 69.1666 66.003 69.1666 66.666C69.1666 67.3291 68.9032 67.9649 68.4344 68.4338C67.9656 68.9026 67.3297 69.166 66.6666 69.166C64.6782 69.1682 62.7718 69.9591 61.3658 71.3652C59.9597 72.7712 59.1688 74.6776 59.1666 76.666C59.1666 77.3291 58.9032 77.965 58.4344 78.4338C57.9656 78.9026 57.3297 79.166 56.6666 79.166Z" fill="#F2BF80"/>
<path d="M23.3334 52.5C22.6703 52.5 22.0344 52.2366 21.5656 51.7678C21.0968 51.2989 20.8334 50.663 20.8334 50C20.8369 46.6859 22.155 43.5085 24.4984 41.1651C26.8419 38.8216 30.0193 37.5035 33.3334 37.5C33.9964 37.5 34.6323 37.7634 35.1011 38.2322C35.57 38.7011 35.8334 39.337 35.8334 40C35.8334 40.663 35.57 41.2989 35.1011 41.7678C34.6323 42.2366 33.9964 42.5 33.3334 42.5C31.3449 42.5022 29.4386 43.2931 28.0325 44.6991C26.6265 46.1052 25.8356 48.0116 25.8334 50C25.8334 50.663 25.57 51.2989 25.1011 51.7678C24.6323 52.2366 23.9964 52.5 23.3334 52.5Z" fill="#F2BF80"/>
</svg>
