<svg width="49" height="49" viewBox="0 0 49 49" fill="#EB4B38" xmlns="http://www.w3.org/2000/svg">
<path d="M35.4189 4.99041C34.9279 4.50198 34.1317 4.53773 33.6423 5.02731C31.4531 7.21485 29.5755 9.84656 28.1007 12.7965C25.7098 12.4503 23.2816 12.4503 20.8907 12.7965C19.4728 9.92842 17.6045 7.30607 15.3569 5.02916C14.8678 4.53879 14.0713 4.5023 13.5798 4.99062C7.98093 10.5541 4.40234 18.9814 4.40234 28.4475C4.40234 37.2402 13.3962 44.3581 24.5 44.3581C35.5956 44.3581 44.5977 37.2402 44.5977 28.4475C44.5977 18.9813 41.0113 10.5538 35.4189 4.99041ZM14.0325 31.6632C11.7043 31.2109 9.72811 29.5278 8.58936 27.1914C9.72811 24.855 11.7043 23.1718 14.0325 22.7197V31.6632ZM16.5447 31.6632V22.7197C18.8643 23.1718 20.849 24.855 21.9878 27.1914C20.849 29.5278 18.8643 31.2109 16.5447 31.6632ZM32.4553 31.6632C30.1271 31.2109 28.151 29.5278 27.0122 27.1914C28.151 24.855 30.1271 23.1718 32.4553 22.7197V31.6632ZM34.9675 31.6632V22.7197C37.2872 23.1718 39.2719 24.855 40.4106 27.1914C39.2719 29.5278 37.2872 31.2109 34.9675 31.6632Z" fill="#DE3F4C"/>
</svg>
